<?xml version="1.0" standalone="no"?>
<!DOCTYPE svg PUBLIC "-//W3C//DTD SVG 20010904//EN"
 "http://www.w3.org/TR/2001/REC-SVG-20010904/DTD/svg10.dtd">
<svg version="1.0" xmlns="http://www.w3.org/2000/svg"
 width="500.000000pt" height="500.000000pt" viewBox="0 0 500.000000 500.000000"
 preserveAspectRatio="xMidYMid meet">
<metadata>
Created by potrace 1.14, written by Peter Selinger 2001-2017
</metadata>
<g transform="translate(0.000000,500.000000) scale(0.100000,-0.100000)"
fill="#000000" stroke="none">
<path d="M2485 4986 c-357 -60 -708 -322 -967 -721 -117 -180 -240 -446 -311
-674 l-34 -109 66 54 c251 205 710 304 1406 304 701 0 1149 -98 1406 -305 l67
-54 -34 109 c-228 726 -689 1254 -1206 1380 -108 27 -287 34 -393 16z"/>
<path d="M2465 3784 c-702 -30 -1102 -151 -1278 -387 -58 -78 -78 -135 -84
-242 -10 -185 67 -376 246 -605 70 -90 223 -250 306 -318 l50 -42 -47 0 c-45
0 -49 2 -150 99 -56 55 -130 133 -163 175 -33 41 -62 75 -65 75 -3 1 -57 -78
-120 -174 l-115 -175 -66 0 c-135 0 -232 -52 -284 -154 -25 -51 -29 -68 -28
-130 2 -39 13 -116 25 -170 l23 -100 -126 -250 c-175 -349 -328 -723 -351
-857 -38 -221 117 -451 343 -510 57 -14 3115 -24 3714 -11 372 8 425 11 465
27 76 31 150 86 196 144 l44 56 0 233 0 233 -46 122 c-85 224 -238 550 -374
797 l-58 106 14 69 c19 85 14 187 -10 237 -41 85 -130 144 -234 155 -48 5 -55
9 -75 43 -44 73 -202 310 -207 309 -3 0 -36 -39 -75 -86 -38 -47 -112 -125
-164 -174 -91 -85 -97 -89 -140 -89 l-46 0 50 42 c90 74 249 242 321 338 175
234 243 410 232 595 -19 297 -310 492 -854 574 -216 33 -637 55 -869 45z"/>
</g>
</svg>
